<?xml version="1.0" encoding="UTF-8"?>
<svg id="Ebene_1" data-name="Ebene 1" xmlns="http://www.w3.org/2000/svg" viewBox="0 0 2581.86 660.4">
  <defs>
    <style>
      .cls-1 {
        fill: #03254e;
      }

      .cls-2 {
        fill: #e41196;
      }
    </style>
  </defs>
  <path class="cls-2" d="M212.02,482.7c-12.71,0-22.88-3.81-30.5-11.44s-11.44-17.79-11.44-30.5v-241.71c0-8.64,2.92-14.99,8.77-19.06,5.84-4.06,12.07-6.1,18.68-6.1s12.58,2.04,17.92,6.1c5.34,4.07,8.01,10.42,8.01,19.06v216.55c0,7.62,1.53,12.84,4.57,15.63,3.05,2.8,8.12,4.19,15.25,4.19h78.54c8.12,0,14.11,2.55,17.92,7.62,3.81,5.09,5.72,10.42,5.72,16.01,0,6.1-1.91,11.57-5.72,16.39-3.81,4.84-9.79,7.24-17.92,7.24h-109.8Z"/>
  <path class="cls-2" d="M956.21,490.32c-8.65,0-16.91-2.17-24.78-6.48-7.89-4.31-13.34-10.79-16.39-19.44l-91.5-255.43c-1.02-4.06-1.52-7.36-1.52-9.91,0-7.62,2.54-13.73,7.62-18.3,5.08-4.58,10.92-6.86,17.54-6.86,4.58,0,9.27,1.02,14.11,3.05,4.82,2.04,8.51,5.85,11.06,11.44l77.01,224.94c1.52,4.07,4.06,6.1,7.62,6.1s6.1-2.03,7.62-6.1l81.59-224.94c2.54-5.59,6.22-9.4,11.06-11.44,4.83-2.03,9.53-3.05,14.11-3.05,6.6,0,12.45,2.29,17.54,6.86,5.08,4.57,7.62,10.67,7.62,18.3,0,2.55-.51,5.85-1.53,9.91l-97.6,255.43c-3.56,8.65-9.15,15.13-16.78,19.44-7.62,4.31-15.76,6.48-24.4,6.48Z"/>
  <path class="cls-1" d="M1322.19,490.32c-8.65,0-16.91-2.17-24.78-6.48-7.89-4.31-13.34-10.79-16.39-19.44l-91.5-255.43c-1.02-4.06-1.52-7.36-1.52-9.91,0-7.62,2.54-13.73,7.62-18.3,5.08-4.58,10.92-6.86,17.54-6.86,4.58,0,9.27,1.02,14.11,3.05,4.82,2.04,8.51,5.85,11.06,11.44l77.01,224.94c1.52,4.07,4.06,6.1,7.62,6.1s6.1-2.03,7.62-6.1l81.59-224.94c2.54-5.59,6.22-9.4,11.06-11.44,4.83-2.03,9.53-3.05,14.11-3.05,6.6,0,12.45,2.29,17.54,6.86,5.08,4.57,7.62,10.67,7.62,18.3,0,2.55-.51,5.85-1.53,9.91l-97.6,255.43c-3.56,8.65-9.15,15.13-16.78,19.44-7.62,4.31-15.76,6.48-24.4,6.48Z"/>
  <path class="cls-1" d="M1556.28,490.32c-6.61,0-12.46-2.29-17.54-6.86-5.09-4.58-7.62-10.67-7.62-18.3,0-2.54.5-5.84,1.52-9.91l95.31-258.48c3.55-8.64,8.89-15.25,16.01-19.82,7.11-4.58,14.74-6.86,22.88-6.86s15.88,2.29,23.26,6.86c7.36,4.57,12.83,11.19,16.39,19.82l101.41,258.48c1.01,4.07,1.53,7.37,1.53,9.91,0,7.62-2.55,13.72-7.62,18.3-5.09,4.58-10.94,6.86-17.54,6.86-4.57,0-9.28-1.14-14.11-3.43-4.84-2.29-8.52-5.97-11.06-11.06l-25.16-67.1c-.51-3.05-2.55-4.58-6.1-4.58h-116.66c-3.56,0-5.85,1.52-6.86,4.58l-22.88,67.1c-2.55,5.09-6.23,8.77-11.06,11.06-4.84,2.29-9.53,3.43-14.11,3.43ZM1634.05,358.41h68.62c3.05,0,5.46-1.14,7.24-3.43,1.78-2.29,2.16-5.21,1.14-8.77l-36.6-104.46c-1.53-5.08-3.81-7.62-6.86-7.62-3.56,0-6.1,2.55-7.62,7.62l-34.31,105.22c-1.02,3.05-.64,5.72,1.14,8.01,1.78,2.29,4.19,3.43,7.24,3.43Z"/>
  <path class="cls-1" d="M1927.61,490.32c-8.14,0-14.87-2.93-20.21-8.77-5.34-5.84-7.5-12.83-6.48-20.97l32.79-256.2c1.01-10.16,4.96-17.79,11.82-22.88,6.86-5.08,14.36-7.62,22.49-7.62s15.63,1.91,22.49,5.72,11.56,9.53,14.11,17.16l60.24,170.8c2.54,6.1,5.08,9.15,7.62,9.15,3.05,0,5.59-3.05,7.62-9.15l60.24-170.8c2.54-7.62,7.24-13.34,14.11-17.16s14.11-5.72,21.73-5.72c8.13,0,15.75,2.55,22.88,7.62,7.11,5.09,11.17,12.71,12.2,22.88l32.79,256.2c1.01,8.14-1.03,15.13-6.1,20.97-5.09,5.84-11.95,8.77-20.59,8.77-6.61,0-12.58-2.29-17.92-6.86-5.34-4.58-8.52-10.41-9.53-17.54l-16.78-188.33c-.51-6.1-2.55-9.15-6.1-9.15s-6.1,2.55-7.62,7.62l-54.9,151.74c-3.05,8.14-7.38,13.99-12.96,17.54-5.6,3.56-11.95,5.34-19.06,5.34-13.73,0-24.15-7.62-31.26-22.87l-55.66-151.74c-2.04-5.08-4.58-7.62-7.62-7.62-2.04,0-3.56,3.05-4.58,9.15l-18.3,188.33c-.51,7.12-3.43,12.96-8.77,17.54-5.34,4.58-11.57,6.86-18.68,6.86Z"/>
  <path class="cls-1" d="M2385.1,490.32c-6.61,0-12.71-2.17-18.3-6.48-5.6-4.31-8.39-10.54-8.39-18.68V199.05c0-8.64,2.79-14.99,8.39-19.06,5.59-4.06,11.69-6.1,18.3-6.1,7.11,0,13.34,2.04,18.68,6.1,5.34,4.07,8.01,10.42,8.01,19.06v266.11c0,8.14-2.67,14.37-8.01,18.68-5.34,4.31-11.57,6.48-18.68,6.48Z"/>
  <path class="cls-2" d="M734.54,207.18c45.32,45.32,45.32,119.06,0,164.38-.11.11-.22.22-.33.33l-100.45,96.51c-27.19,27-71.27,26.95-98.41-.14l-97.07-96.16s-.05-.05-.08-.08c-45.32-45.32-45.32-119.06,0-164.38,40.15-40.15,102.6-44.73,147.84-13.74,45.29-31.48,108.15-27.05,148.49,13.29ZM701.82,338.52c27.04-27.2,26.99-71.33-.15-98.47-27.19-27.19-71.43-27.19-98.63,0l-.45.45c-9.08,9.08-23.8,9.08-32.88,0-27.19-27.19-71.43-27.19-98.63,0-27.18,27.18-27.19,71.4-.03,98.59l97.06,96.16.08.08c9.06,9.06,23.81,9.06,32.88,0,.11-.11.22-.22.33-.33l100.42-96.48Z"/>
</svg>